<svg width="66" height="60" viewBox="0 0 66 60" fill="none" xmlns="http://www.w3.org/2000/svg">
<path d="M56.4905 29.7619C56.4905 45.6947 44.2202 58.5238 29.1886 58.5238C14.157 58.5238 1.88672 45.6947 1.88672 29.7619C1.88672 13.8291 14.157 1 29.1886 1C44.2202 1 56.4905 13.8291 56.4905 29.7619Z" fill="#FDFAF3" stroke="#0E0E0E" stroke-width="2"/>
<ellipse cx="37.1132" cy="29.7619" rx="28.3019" ry="29.7619" fill="#0E0E0E"/>
<path d="M50.6267 30.8226C51.2125 30.2368 51.2125 29.287 50.6267 28.7012L41.0808 19.1553C40.495 18.5695 39.5452 18.5695 38.9595 19.1553C38.3737 19.7411 38.3737 20.6908 38.9595 21.2766L47.4447 29.7619L38.9595 38.2472C38.3737 38.833 38.3737 39.7827 38.9595 40.3685C39.5452 40.9543 40.495 40.9543 41.0808 40.3685L50.6267 30.8226ZM24.6604 31.2619H49.5661V28.2619H24.6604V31.2619Z" fill="#D9D9D9"/>
</svg>
