<svg width="265" height="39" viewBox="0 0 265 39" fill="none" xmlns="http://www.w3.org/2000/svg">
<rect x="0.320801" y="0.714287" width="22.6415" height="38.0952" fill="white"/>
<rect x="22.9623" y="0.714287" width="22.6415" height="38.0952" fill="#0E0E0E"/>
<path d="M64.821 24.7143V21.9303H67.029V10.6983H64.821V7.91429H71.733C73.989 7.91429 75.701 8.49029 76.869 9.64229C78.053 10.7783 78.645 12.4743 78.645 14.7303V17.8983C78.645 20.1543 78.053 21.8583 76.869 23.0103C75.701 24.1463 73.989 24.7143 71.733 24.7143H64.821ZM70.197 21.8343H71.781C73.061 21.8343 73.997 21.4983 74.589 20.8263C75.181 20.1543 75.477 19.2103 75.477 17.9943V14.6343C75.477 13.4023 75.181 12.4583 74.589 11.8023C73.997 11.1303 73.061 10.7943 71.781 10.7943H70.197V21.8343ZM81.3814 24.7143V12.8103H84.4054V24.7143H81.3814ZM82.8934 11.4183C82.3494 11.4183 81.8854 11.2423 81.5014 10.8903C81.1334 10.5383 80.9494 10.0743 80.9494 9.49829C80.9494 8.92229 81.1334 8.45829 81.5014 8.10629C81.8854 7.75429 82.3494 7.57829 82.8934 7.57829C83.4534 7.57829 83.9174 7.75429 84.2854 8.10629C84.6534 8.45829 84.8374 8.92229 84.8374 9.49829C84.8374 10.0743 84.6534 10.5383 84.2854 10.8903C83.9174 11.2423 83.4534 11.4183 82.8934 11.4183ZM87.1804 18.8103V18.4263C87.1804 17.1783 87.4284 16.1143 87.9244 15.2343C88.4204 14.3383 89.0764 13.6583 89.8924 13.1943C90.7244 12.7143 91.6284 12.4743 92.6044 12.4743C93.6924 12.4743 94.5164 12.6663 95.0764 13.0503C95.6364 13.4343 96.0444 13.8343 96.3004 14.2503H96.7324V12.8103H99.7084V26.8263C99.7084 27.6423 99.4684 28.2903 98.9884 28.7703C98.5084 29.2663 97.8684 29.5143 97.0684 29.5143H89.1004V26.8743H96.0124C96.4604 26.8743 96.6844 26.6343 96.6844 26.1543V23.0583H96.2524C96.0924 23.3143 95.8684 23.5783 95.5804 23.8503C95.2924 24.1063 94.9084 24.3223 94.4284 24.4983C93.9484 24.6743 93.3404 24.7623 92.6044 24.7623C91.6284 24.7623 90.7244 24.5303 89.8924 24.0663C89.0764 23.5863 88.4204 22.9063 87.9244 22.0263C87.4284 21.1303 87.1804 20.0583 87.1804 18.8103ZM93.4684 22.1223C94.3964 22.1223 95.1724 21.8263 95.7964 21.2343C96.4204 20.6423 96.7324 19.8103 96.7324 18.7383V18.4983C96.7324 17.4103 96.4204 16.5783 95.7964 16.0023C95.1884 15.4103 94.4124 15.1143 93.4684 15.1143C92.5404 15.1143 91.7644 15.4103 91.1404 16.0023C90.5164 16.5783 90.2044 17.4103 90.2044 18.4983V18.7383C90.2044 19.8103 90.5164 20.6423 91.1404 21.2343C91.7644 21.8263 92.5404 22.1223 93.4684 22.1223ZM103.061 24.7143V12.8103H106.085V24.7143H103.061ZM104.573 11.4183C104.029 11.4183 103.565 11.2423 103.181 10.8903C102.813 10.5383 102.629 10.0743 102.629 9.49829C102.629 8.92229 102.813 8.45829 103.181 8.10629C103.565 7.75429 104.029 7.57829 104.573 7.57829C105.133 7.57829 105.597 7.75429 105.965 8.10629C106.333 8.45829 106.517 8.92229 106.517 9.49829C106.517 10.0743 106.333 10.5383 105.965 10.8903C105.597 11.2423 105.133 11.4183 104.573 11.4183ZM113.996 24.7143C113.212 24.7143 112.572 24.4743 112.076 23.9943C111.596 23.4983 111.356 22.8423 111.356 22.0263V15.3063H108.38V12.8103H111.356V9.11429H114.38V12.8103H117.644V15.3063H114.38V21.4983C114.38 21.9783 114.604 22.2183 115.052 22.2183H117.356V24.7143H113.996ZM124.077 25.0503C123.229 25.0503 122.469 24.9063 121.797 24.6183C121.125 24.3143 120.589 23.8823 120.189 23.3223C119.805 22.7463 119.613 22.0503 119.613 21.2343C119.613 20.4183 119.805 19.7383 120.189 19.1943C120.589 18.6343 121.133 18.2183 121.821 17.9463C122.525 17.6583 123.325 17.5143 124.221 17.5143H127.485V16.8423C127.485 16.2823 127.309 15.8263 126.957 15.4743C126.605 15.1063 126.045 14.9223 125.277 14.9223C124.525 14.9223 123.965 15.0983 123.597 15.4503C123.229 15.7863 122.989 16.2263 122.877 16.7703L120.093 15.8343C120.285 15.2263 120.589 14.6743 121.005 14.1783C121.437 13.6663 122.005 13.2583 122.709 12.9543C123.429 12.6343 124.301 12.4743 125.325 12.4743C126.893 12.4743 128.133 12.8663 129.045 13.6503C129.957 14.4343 130.413 15.5703 130.413 17.0583V21.4983C130.413 21.9783 130.637 22.2183 131.085 22.2183H132.045V24.7143H130.029C129.437 24.7143 128.949 24.5703 128.565 24.2823C128.181 23.9943 127.989 23.6103 127.989 23.1303V23.1063H127.533C127.469 23.2983 127.325 23.5543 127.101 23.8743C126.877 24.1783 126.525 24.4503 126.045 24.6903C125.565 24.9303 124.909 25.0503 124.077 25.0503ZM124.605 22.6023C125.453 22.6023 126.141 22.3703 126.669 21.9063C127.213 21.4263 127.485 20.7943 127.485 20.0103V19.7703H124.437C123.877 19.7703 123.437 19.8903 123.117 20.1303C122.797 20.3703 122.637 20.7063 122.637 21.1383C122.637 21.5703 122.805 21.9223 123.141 22.1943C123.477 22.4663 123.965 22.6023 124.605 22.6023ZM134.256 24.7143V7.91429H137.28V24.7143H134.256ZM146.149 24.7143V21.9303H148.357V10.6983H146.149V7.91429H154.789C155.813 7.91429 156.701 8.09029 157.453 8.44229C158.221 8.77829 158.813 9.26629 159.229 9.90629C159.661 10.5303 159.877 11.2823 159.877 12.1623V12.4023C159.877 13.1703 159.733 13.8023 159.445 14.2983C159.157 14.7783 158.813 15.1543 158.413 15.4263C158.029 15.6823 157.661 15.8663 157.309 15.9783V16.4103C157.661 16.5063 158.045 16.6903 158.461 16.9623C158.877 17.2183 159.229 17.5943 159.517 18.0903C159.821 18.5863 159.973 19.2343 159.973 20.0343V20.2743C159.973 21.2023 159.757 22.0023 159.325 22.6743C158.893 23.3303 158.293 23.8343 157.525 24.1863C156.773 24.5383 155.893 24.7143 154.885 24.7143H146.149ZM151.525 21.8343H154.501C155.189 21.8343 155.741 21.6663 156.157 21.3303C156.589 20.9943 156.805 20.5143 156.805 19.8903V19.6503C156.805 19.0263 156.597 18.5463 156.181 18.2103C155.765 17.8743 155.205 17.7063 154.501 17.7063H151.525V21.8343ZM151.525 14.8263H154.453C155.109 14.8263 155.645 14.6583 156.061 14.3223C156.493 13.9863 156.709 13.5223 156.709 12.9303V12.6903C156.709 12.0823 156.501 11.6183 156.085 11.2983C155.669 10.9623 155.125 10.7943 154.453 10.7943H151.525V14.8263ZM166.359 25.0503C165.511 25.0503 164.751 24.9063 164.079 24.6183C163.407 24.3143 162.871 23.8823 162.471 23.3223C162.087 22.7463 161.895 22.0503 161.895 21.2343C161.895 20.4183 162.087 19.7383 162.471 19.1943C162.871 18.6343 163.415 18.2183 164.103 17.9463C164.807 17.6583 165.607 17.5143 166.503 17.5143H169.767V16.8423C169.767 16.2823 169.591 15.8263 169.239 15.4743C168.887 15.1063 168.327 14.9223 167.559 14.9223C166.807 14.9223 166.247 15.0983 165.879 15.4503C165.511 15.7863 165.271 16.2263 165.159 16.7703L162.375 15.8343C162.567 15.2263 162.871 14.6743 163.287 14.1783C163.719 13.6663 164.287 13.2583 164.991 12.9543C165.711 12.6343 166.583 12.4743 167.607 12.4743C169.175 12.4743 170.415 12.8663 171.327 13.6503C172.239 14.4343 172.695 15.5703 172.695 17.0583V21.4983C172.695 21.9783 172.919 22.2183 173.367 22.2183H174.327V24.7143H172.311C171.719 24.7143 171.231 24.5703 170.847 24.2823C170.463 23.9943 170.271 23.6103 170.271 23.1303V23.1063H169.815C169.751 23.2983 169.607 23.5543 169.383 23.8743C169.159 24.1783 168.807 24.4503 168.327 24.6903C167.847 24.9303 167.191 25.0503 166.359 25.0503ZM166.887 22.6023C167.735 22.6023 168.423 22.3703 168.951 21.9063C169.495 21.4263 169.767 20.7943 169.767 20.0103V19.7703H166.719C166.159 19.7703 165.719 19.8903 165.399 20.1303C165.079 20.3703 164.919 20.7063 164.919 21.1383C164.919 21.5703 165.087 21.9223 165.423 22.1943C165.759 22.4663 166.247 22.6023 166.887 22.6023ZM176.538 24.7143V12.8103H179.514V14.3703H179.946C180.138 13.9543 180.498 13.5623 181.026 13.1943C181.554 12.8103 182.354 12.6183 183.426 12.6183C184.354 12.6183 185.162 12.8343 185.85 13.2663C186.554 13.6823 187.098 14.2663 187.482 15.0183C187.866 15.7543 188.058 16.6183 188.058 17.6103V24.7143H185.034V17.8503C185.034 16.9543 184.81 16.2823 184.362 15.8343C183.93 15.3863 183.306 15.1623 182.49 15.1623C181.562 15.1623 180.842 15.4743 180.33 16.0983C179.818 16.7063 179.562 17.5623 179.562 18.6663V24.7143H176.538ZM191.327 24.7143V7.91429H194.351V17.2023H194.783L198.719 12.8103H202.655L197.159 18.5703L202.847 24.7143H198.959L194.783 19.9863H194.351V24.7143H191.327ZM204.874 24.7143V12.8103H207.898V24.7143H204.874ZM206.386 11.4183C205.842 11.4183 205.378 11.2423 204.994 10.8903C204.626 10.5383 204.442 10.0743 204.442 9.49829C204.442 8.92229 204.626 8.45829 204.994 8.10629C205.378 7.75429 205.842 7.57829 206.386 7.57829C206.946 7.57829 207.41 7.75429 207.778 8.10629C208.146 8.45829 208.33 8.92229 208.33 9.49829C208.33 10.0743 208.146 10.5383 207.778 10.8903C207.41 11.2423 206.946 11.4183 206.386 11.4183ZM211.249 24.7143V12.8103H214.225V14.3703H214.657C214.849 13.9543 215.209 13.5623 215.737 13.1943C216.265 12.8103 217.065 12.6183 218.137 12.6183C219.065 12.6183 219.873 12.8343 220.561 13.2663C221.265 13.6823 221.809 14.2663 222.193 15.0183C222.577 15.7543 222.769 16.6183 222.769 17.6103V24.7143H219.745V17.8503C219.745 16.9543 219.521 16.2823 219.073 15.8343C218.641 15.3863 218.017 15.1623 217.201 15.1623C216.273 15.1623 215.553 15.4743 215.041 16.0983C214.529 16.7063 214.273 17.5623 214.273 18.6663V24.7143H211.249ZM225.462 18.8103V18.4263C225.462 17.1783 225.71 16.1143 226.206 15.2343C226.702 14.3383 227.358 13.6583 228.174 13.1943C229.006 12.7143 229.91 12.4743 230.886 12.4743C231.974 12.4743 232.798 12.6663 233.358 13.0503C233.918 13.4343 234.326 13.8343 234.582 14.2503H235.014V12.8103H237.99V26.8263C237.99 27.6423 237.75 28.2903 237.27 28.7703C236.79 29.2663 236.15 29.5143 235.35 29.5143H227.382V26.8743H234.294C234.742 26.8743 234.966 26.6343 234.966 26.1543V23.0583H234.534C234.374 23.3143 234.15 23.5783 233.862 23.8503C233.574 24.1063 233.19 24.3223 232.71 24.4983C232.23 24.6743 231.622 24.7623 230.886 24.7623C229.91 24.7623 229.006 24.5303 228.174 24.0663C227.358 23.5863 226.702 22.9063 226.206 22.0263C225.71 21.1303 225.462 20.0583 225.462 18.8103ZM231.75 22.1223C232.678 22.1223 233.454 21.8263 234.078 21.2343C234.702 20.6423 235.014 19.8103 235.014 18.7383V18.4983C235.014 17.4103 234.702 16.5783 234.078 16.0023C233.47 15.4103 232.694 15.1143 231.75 15.1143C230.822 15.1143 230.046 15.4103 229.422 16.0023C228.798 16.5783 228.486 17.4103 228.486 18.4983V18.7383C228.486 19.8103 228.798 20.6423 229.422 21.2343C230.046 21.8263 230.822 22.1223 231.75 22.1223Z" fill="black"/>
</svg>
